<?xml version="1.0" standalone="no"?>
<!DOCTYPE svg PUBLIC "-//W3C//DTD SVG 20010904//EN"
 "http://www.w3.org/TR/2001/REC-SVG-20010904/DTD/svg10.dtd">
<svg version="1.0" xmlns="http://www.w3.org/2000/svg"
 width="2500.000000pt" height="2500.000000pt" viewBox="0 0 2500.000000 2500.000000"
 preserveAspectRatio="xMidYMid meet">
<metadata>
Created by potrace 1.11, written by Peter Selinger 2001-2013
</metadata>
<g transform="translate(0.000000,2500.000000) scale(0.100000,-0.100000)"
fill="#000000" stroke="none">
<path d="M16445 24421 c6 -11 1 -13 -24 -9 -23 3 -31 1 -31 -11 0 -13 -2 -14
-9 -2 -6 9 -16 11 -27 6 -11 -4 -37 -9 -59 -11 -21 -3 -41 -8 -45 -13 -3 -4
-13 -7 -22 -5 -10 1 -18 -2 -18 -7 0 -6 -4 -8 -9 -5 -5 3 -12 -1 -15 -10 -5
-13 -9 -14 -20 -5 -10 9 -15 8 -19 -3 -4 -9 -15 -13 -26 -11 -15 3 -18 0 -14
-12 5 -12 2 -15 -10 -10 -8 3 -21 -1 -27 -9 -7 -8 -20 -14 -29 -14 -14 0 -14
-2 -1 -10 12 -8 11 -10 -7 -10 -12 0 -25 -5 -28 -10 -4 -6 -11 -8 -16 -4 -5 3
-8 2 -7 -3 2 -4 -8 -20 -21 -35 -19 -22 -27 -25 -38 -16 -11 8 -12 7 -7 -6 5
-12 2 -15 -10 -10 -11 4 -16 1 -16 -11 0 -21 -81 -101 -111 -110 -11 -4 -18
-9 -15 -12 5 -6 -16 -32 -24 -29 -3 1 -17 -11 -32 -26 -15 -15 -25 -28 -22
-28 3 0 -1 -6 -8 -14 -7 -8 -16 -12 -21 -9 -4 2 -7 1 -6 -4 4 -13 -23 -63 -31
-58 -5 3 -11 -7 -14 -21 -4 -15 -10 -24 -13 -21 -10 10 -45 -42 -37 -55 4 -7
4 -10 -1 -6 -13 12 -47 -12 -41 -29 4 -11 2 -13 -9 -9 -9 3 -15 0 -15 -8 0 -7
-9 -21 -20 -31 -11 -10 -17 -22 -13 -28 4 -6 0 -8 -10 -4 -9 3 -16 3 -14 -1 1
-4 -4 -14 -11 -22 -7 -8 -20 -24 -28 -35 -9 -11 -12 -14 -8 -6 5 10 3 12 -5 7
-9 -6 -9 -11 0 -22 10 -12 9 -13 -4 -9 -8 4 -18 1 -23 -6 -5 -8 -3 -10 7 -4
12 8 12 6 0 -8 -7 -9 -18 -14 -24 -10 -5 3 -7 2 -4 -3 3 -6 2 -16 -4 -24 -7
-13 -9 -13 -10 0 0 8 -4 4 -8 -10 -4 -14 -14 -24 -23 -24 -11 1 -15 -5 -13
-17 3 -13 -1 -16 -12 -12 -11 4 -14 2 -9 -5 4 -7 3 -12 -1 -12 -18 0 -82 -72
-76 -86 4 -10 0 -12 -13 -7 -13 5 -15 3 -9 -7 6 -10 4 -12 -7 -7 -12 4 -15 0
-13 -18 1 -13 -1 -24 -4 -23 -22 2 -29 -5 -26 -27 2 -22 0 -23 -13 -13 -13 11
-15 10 -9 -5 4 -10 3 -16 -2 -13 -13 8 -34 -21 -25 -35 4 -8 3 -9 -5 -5 -16
10 -43 -13 -37 -31 3 -8 2 -11 -3 -8 -5 3 -12 -4 -16 -15 -3 -11 -12 -20 -20
-20 -15 0 -28 -28 -18 -42 3 -6 2 -9 -3 -6 -11 7 -35 -17 -27 -26 4 -3 -2 -6
-12 -6 -10 0 -16 -3 -12 -6 3 -4 -4 -15 -16 -25 -12 -10 -18 -18 -14 -19 5 0
2 -7 -5 -15 -26 -28 -34 -40 -41 -57 -3 -10 -11 -18 -17 -18 -6 0 -9 -4 -6 -9
4 -5 -6 -23 -20 -40 -14 -17 -22 -31 -18 -31 4 0 -2 -9 -14 -20 -12 -12 -22
-27 -22 -35 0 -8 -4 -15 -9 -15 -5 0 -16 -17 -25 -37 -29 -66 -92 -164 -101
-156 -4 5 -5 2 -1 -4 4 -7 -7 -43 -25 -80 -78 -165 -94 -198 -101 -201 -5 -2
-8 -12 -8 -23 0 -10 -4 -19 -9 -19 -5 0 -15 -15 -22 -32 -7 -18 -19 -39 -26
-46 -7 -7 -13 -20 -13 -28 0 -8 -4 -14 -8 -14 -5 0 -17 -18 -28 -40 -10 -22
-22 -40 -26 -40 -5 0 -8 -7 -8 -15 0 -8 -4 -15 -8 -15 -5 0 -14 -12 -21 -27
-7 -16 -28 -51 -47 -80 -19 -28 -34 -59 -34 -67 0 -9 -5 -16 -11 -16 -5 0 -16
-15 -24 -34 -8 -19 -20 -40 -27 -48 -7 -8 -19 -25 -27 -38 -8 -14 -29 -50 -47
-80 -18 -30 -42 -66 -53 -80 -12 -14 -29 -39 -39 -56 -45 -80 -77 -130 -89
-137 -7 -4 -13 -14 -13 -22 0 -7 -3 -15 -8 -17 -15 -6 -71 -85 -65 -92 3 -3 1
-6 -5 -6 -6 0 -19 -15 -28 -32 -9 -18 -23 -37 -30 -41 -8 -4 -14 -13 -14 -19
0 -5 -13 -27 -30 -48 -16 -20 -27 -40 -23 -44 3 -3 1 -6 -5 -6 -6 0 -19 -15
-28 -32 -9 -18 -20 -35 -24 -38 -3 -3 -17 -24 -30 -47 -13 -24 -27 -43 -32
-43 -4 0 -8 -4 -8 -10 0 -5 -18 -39 -40 -75 -22 -36 -40 -68 -40 -70 0 -3 -31
-55 -70 -117 -38 -62 -70 -116 -70 -121 0 -5 -22 -39 -49 -76 -27 -36 -63 -91
-79 -123 -17 -31 -47 -78 -67 -104 -43 -56 -80 -127 -90 -171 -3 -18 -11 -35
-16 -39 -12 -7 -50 -90 -74 -164 -9 -30 -28 -77 -40 -105 -49 -108 -63 -141
-69 -165 -9 -32 -49 -123 -57 -130 -10 -8 -50 -90 -44 -90 2 0 -9 -21 -25 -46
-16 -26 -27 -51 -24 -55 3 -5 0 -9 -5 -9 -6 0 -11 -5 -11 -10 0 -6 -10 -21
-21 -33 -12 -12 -42 -64 -67 -116 -25 -52 -67 -133 -94 -179 -27 -47 -65 -120
-85 -161 -20 -42 -44 -87 -53 -101 -10 -14 -33 -54 -52 -90 -19 -36 -45 -83
-59 -105 -13 -22 -24 -43 -24 -47 0 -4 -6 -13 -12 -19 -7 -7 -13 -20 -13 -28
0 -8 -22 -57 -49 -110 -26 -53 -52 -107 -56 -121 -4 -14 -25 -63 -47 -110 -22
-47 -44 -94 -48 -105 -5 -11 -21 -49 -36 -85 -33 -79 -76 -170 -109 -230 -13
-25 -33 -63 -43 -85 -46 -97 -130 -226 -210 -325 -13 -16 -23 -31 -22 -35 0
-3 -10 -15 -24 -26 -15 -11 -26 -26 -26 -34 0 -7 -4 -15 -8 -17 -19 -7 -102
-120 -96 -130 4 -6 3 -8 -3 -5 -10 7 -62 -44 -106 -104 -14 -20 -40 -51 -57
-68 -18 -17 -29 -31 -26 -31 3 0 -15 -21 -40 -47 -25 -27 -52 -61 -61 -77 -8
-17 -26 -41 -39 -55 -14 -14 -43 -55 -67 -91 -23 -36 -44 -67 -47 -70 -17 -16
-105 -169 -178 -310 -24 -47 -47 -87 -51 -90 -14 -11 -48 -70 -107 -185 -226
-448 -237 -466 -434 -690 -25 -28 -67 -79 -95 -113 -27 -34 -72 -86 -98 -115
-27 -28 -62 -72 -80 -97 -17 -25 -37 -49 -44 -53 -8 -5 -25 -25 -38 -45 -13
-20 -52 -74 -87 -119 -35 -45 -72 -94 -83 -109 -11 -16 -34 -44 -50 -64 -17
-19 -57 -69 -90 -110 -33 -41 -69 -84 -80 -95 -11 -11 -35 -41 -53 -67 -17
-25 -35 -48 -39 -50 -18 -7 -73 -80 -68 -89 4 -5 0 -9 -8 -9 -15 0 -53 -49
-49 -63 1 -5 -2 -6 -6 -3 -5 3 -20 -9 -33 -26 -23 -31 -48 -58 -186 -201 -35
-36 -63 -70 -63 -75 0 -6 -9 -14 -20 -17 -11 -3 -20 -10 -20 -14 0 -4 -15 -22
-34 -41 -19 -19 -32 -38 -29 -43 2 -4 1 -6 -4 -5 -5 2 -24 -13 -43 -33 -188
-193 -250 -261 -250 -274 0 -8 -6 -14 -12 -12 -7 1 -12 -4 -11 -10 2 -7 -4
-13 -12 -13 -8 0 -15 -9 -15 -20 0 -11 -7 -20 -15 -20 -9 0 -18 -7 -22 -16 -3
-9 -16 -27 -28 -41 -51 -57 -62 -70 -102 -124 -23 -32 -39 -59 -37 -62 3 -3
-4 -8 -15 -12 -12 -3 -21 -10 -21 -15 0 -5 -14 -25 -31 -44 -18 -22 -28 -40
-23 -48 4 -7 4 -10 0 -6 -7 6 -46 -26 -46 -38 0 -3 -16 -22 -35 -42 -19 -20
-35 -40 -35 -44 0 -4 -17 -26 -37 -48 -21 -23 -38 -46 -38 -51 0 -6 -11 -17
-25 -24 -14 -7 -24 -16 -22 -19 1 -3 -10 -19 -24 -35 -14 -16 -26 -33 -26 -38
0 -4 -14 -24 -32 -43 -30 -35 -55 -66 -106 -131 -14 -18 -49 -60 -77 -95 -29
-35 -53 -66 -53 -69 0 -3 -8 -13 -17 -23 -10 -10 -29 -33 -43 -52 -14 -19 -33
-42 -42 -52 -10 -10 -18 -21 -18 -24 0 -3 -26 -39 -57 -79 -55 -68 -116 -150
-138 -184 -5 -8 -18 -24 -27 -35 -10 -10 -30 -38 -45 -60 -29 -43 -118 -163
-153 -206 -11 -14 -20 -31 -20 -37 0 -7 -3 -13 -7 -13 -5 0 -19 -16 -32 -36
-13 -19 -37 -49 -53 -67 -16 -18 -36 -44 -45 -59 -10 -16 -21 -28 -25 -28 -4
0 -8 -5 -8 -12 0 -6 -17 -34 -39 -62 -21 -28 -63 -89 -94 -136 -31 -47 -65
-94 -76 -105 -10 -11 -27 -33 -37 -50 -10 -16 -21 -32 -24 -35 -3 -3 -24 -30
-45 -60 -22 -30 -46 -62 -53 -70 -22 -24 -112 -151 -144 -202 -16 -27 -33 -48
-38 -48 -4 0 -11 -8 -14 -17 -3 -10 -24 -43 -47 -73 -22 -30 -60 -86 -86 -124
-25 -38 -50 -75 -57 -82 -6 -7 -22 -29 -36 -49 -22 -32 -96 -132 -117 -160 -5
-5 -21 -30 -38 -55 -16 -24 -37 -52 -45 -61 -24 -26 -45 -60 -43 -70 2 -4 -4
-6 -12 -3 -8 4 -15 2 -15 -3 0 -10 -20 -31 -124 -132 -42 -40 -73 -77 -70 -82
3 -5 2 -8 -3 -7 -8 3 -24 -8 -68 -50 -14 -12 -26 -22 -27 -22 -10 4 -38 -14
-38 -24 0 -6 -14 -17 -31 -25 -16 -7 -44 -26 -62 -42 -17 -16 -38 -29 -46 -29
-8 0 -11 -3 -8 -6 7 -8 -36 -44 -52 -44 -6 0 -11 -6 -11 -12 0 -9 -4 -8 -10 2
-7 10 -10 11 -10 2 0 -7 -11 -17 -25 -22 -14 -5 -25 -14 -25 -20 0 -6 -4 -8
-10 -5 -6 3 -10 -1 -10 -10 0 -9 -4 -14 -9 -10 -5 3 -16 -1 -24 -9 -8 -8 -17
-12 -21 -9 -3 4 -6 1 -6 -6 0 -7 -4 -10 -9 -6 -6 3 -20 -5 -32 -17 -12 -13
-19 -16 -15 -8 5 10 3 9 -6 -2 -8 -9 -21 -18 -28 -20 -8 -2 -23 -11 -34 -20
-10 -10 -22 -15 -26 -13 -4 3 -13 -2 -20 -10 -7 -8 -17 -15 -22 -15 -6 0 -24
-10 -41 -22 -17 -12 -27 -16 -22 -8 5 8 -5 4 -22 -8 -17 -12 -38 -22 -47 -22
-9 0 -16 -4 -16 -9 0 -7 -25 -18 -46 -20 -2 0 -16 -9 -31 -21 -14 -11 -34 -20
-44 -20 -11 0 -19 -4 -19 -8 0 -5 -6 -9 -12 -10 -7 0 -22 -3 -33 -6 -11 -2
-22 -5 -25 -5 -3 -1 2 -6 10 -11 12 -8 11 -10 -7 -10 -39 0 -66 -17 -55 -34 3
-5 0 -6 -6 -2 -6 3 -18 -1 -26 -10 -9 -8 -16 -12 -16 -7 0 4 -7 -1 -15 -11 -8
-11 -15 -17 -15 -13 0 9 -83 -34 -92 -47 -4 -6 -8 -8 -8 -4 0 4 -16 -1 -36
-12 -19 -11 -32 -15 -28 -9 5 8 3 9 -5 5 -7 -5 -10 -14 -7 -21 2 -7 -3 -12
-12 -11 -9 0 -16 -4 -15 -11 2 -7 -4 -10 -12 -7 -8 3 -24 -1 -37 -10 -12 -9
-30 -16 -40 -16 -10 0 -18 -4 -18 -10 0 -5 -6 -10 -14 -10 -19 0 -67 -26 -60
-33 3 -3 -2 -4 -13 -3 -23 4 -74 -14 -68 -23 4 -8 -4 -10 -49 -14 -16 -1 -22
-7 -18 -16 4 -10 1 -13 -11 -8 -10 4 -17 2 -17 -4 0 -6 -7 -9 -15 -5 -8 3 -15
1 -15 -4 0 -6 -7 -10 -15 -10 -9 0 -18 -6 -21 -14 -3 -8 -12 -12 -20 -9 -8 3
-14 0 -14 -7 0 -9 -3 -10 -14 -1 -11 9 -15 8 -20 -4 -3 -9 -10 -13 -16 -10 -5
3 -10 1 -10 -5 0 -6 -5 -8 -10 -5 -6 3 -10 -2 -10 -12 0 -14 -2 -15 -9 -4 -6
10 -10 10 -16 1 -4 -6 -13 -9 -21 -6 -8 3 -14 1 -14 -5 0 -6 -4 -7 -10 -4 -5
3 -10 2 -10 -3 0 -9 -69 -39 -82 -35 -4 2 -8 -2 -8 -9 0 -6 -3 -8 -7 -5 -3 4
-12 2 -20 -5 -7 -6 -16 -8 -20 -5 -3 4 -13 -2 -22 -12 -9 -10 -24 -17 -33 -15
-10 1 -18 -1 -18 -6 0 -7 -36 -17 -77 -22 -7 -1 -13 -7 -13 -14 0 -8 -8 -10
-22 -6 -18 4 -20 2 -15 -14 7 -18 7 -18 -8 0 -12 16 -15 17 -15 4 0 -9 -12
-18 -31 -22 -20 -4 -28 -10 -23 -17 5 -8 3 -9 -5 -5 -7 5 -21 0 -32 -10 -10
-9 -19 -14 -19 -9 0 4 -11 0 -25 -9 -17 -11 -25 -13 -25 -4 0 6 -7 3 -15 -8
-8 -10 -15 -16 -15 -11 0 4 -14 0 -30 -8 -17 -9 -35 -13 -40 -10 -5 3 -15 -3
-22 -13 -7 -11 -21 -18 -30 -16 -10 1 -18 -4 -18 -11 0 -8 -7 -11 -20 -8 -12
3 -20 0 -20 -6 0 -7 -4 -9 -10 -6 -5 3 -10 2 -10 -4 0 -5 -9 -8 -20 -6 -13 2
-20 -2 -20 -11 0 -8 -4 -14 -10 -14 -5 0 -10 5 -10 10 0 6 -5 10 -11 10 -5 0
-7 -4 -4 -10 3 -5 -1 -10 -9 -10 -9 0 -16 -4 -16 -10 0 -5 -9 -10 -20 -10 -11
0 -20 -5 -20 -11 0 -5 -4 -8 -8 -5 -5 3 -25 -6 -45 -19 -20 -14 -43 -22 -51
-19 -9 3 -16 2 -16 -3 0 -5 -10 -10 -22 -10 -13 -1 -28 -9 -34 -18 -9 -12 -13
-13 -17 -3 -4 9 -6 8 -6 -4 -1 -11 -8 -15 -26 -14 -15 2 -22 -1 -18 -7 4 -6 0
-8 -10 -4 -9 3 -18 -1 -22 -11 -5 -14 -7 -14 -15 -2 -6 8 -10 10 -10 4 0 -7
-9 -14 -21 -17 -12 -3 -18 -10 -14 -16 4 -7 0 -8 -11 -4 -10 4 -15 2 -11 -4 3
-5 -3 -9 -16 -8 -12 1 -30 -7 -40 -18 -12 -14 -17 -16 -17 -6 0 12 -2 12 -9
-1 -6 -8 -8 -17 -6 -21 3 -3 -7 -4 -22 -1 -16 3 -24 1 -20 -5 4 -6 -7 -13 -24
-17 -20 -4 -28 -10 -23 -17 5 -8 3 -9 -5 -5 -7 5 -19 0 -27 -10 -9 -11 -13
-13 -9 -6 3 6 1 12 -4 12 -6 0 -11 -5 -11 -11 0 -6 -7 -8 -16 -5 -8 3 -13 2
-11 -2 3 -4 -7 -16 -22 -27 -26 -19 -26 -19 -11 0 10 14 6 13 -12 -4 -17 -15
-34 -22 -47 -18 -11 3 -19 1 -18 -5 2 -11 -95 -68 -106 -61 -4 2 -10 -3 -13
-11 -3 -9 -10 -14 -15 -11 -4 3 -13 -4 -19 -15 -6 -11 -15 -18 -20 -15 -4 3
-15 -1 -23 -9 -8 -8 -17 -13 -19 -10 -3 2 -17 0 -32 -6 -18 -6 -25 -14 -20
-22 5 -8 0 -7 -11 2 -10 8 -16 10 -12 3 4 -6 3 -14 -3 -18 -5 -3 -10 0 -10 7
0 9 -3 9 -8 2 -4 -6 -22 -17 -39 -25 -18 -8 -33 -20 -33 -27 0 -7 -5 -10 -10
-7 -6 4 -17 1 -25 -5 -8 -7 -21 -10 -29 -7 -10 4 -13 1 -9 -9 3 -8 -1 -14 -11
-14 -9 0 -16 -5 -16 -11 0 -5 -4 -8 -9 -5 -5 3 -14 -1 -21 -9 -7 -8 -16 -12
-21 -9 -5 3 -6 -3 -2 -13 6 -16 5 -16 -10 -4 -9 7 -17 10 -17 6 0 -4 -8 -1
-17 6 -16 13 -17 12 -4 -3 11 -15 11 -19 -5 -25 -11 -3 -22 -10 -25 -15 -3 -5
-15 -10 -26 -11 -13 0 -19 -6 -16 -14 4 -9 0 -11 -11 -7 -9 3 -16 1 -16 -5 0
-7 -8 -11 -17 -9 -10 2 -17 -2 -16 -9 2 -7 -3 -10 -11 -7 -8 3 -23 -4 -33 -16
-13 -14 -26 -18 -38 -14 -13 5 -16 4 -11 -4 5 -8 -3 -14 -24 -18 -17 -4 -33
-11 -36 -15 -3 -5 -12 -9 -21 -9 -8 0 -26 -9 -40 -20 -14 -11 -29 -17 -34 -14
-5 3 -9 -2 -9 -11 0 -9 -4 -13 -10 -10 -5 3 -10 1 -10 -5 0 -6 -4 -8 -10 -5
-5 3 -10 2 -10 -2 0 -5 -9 -14 -21 -21 -17 -11 -20 -11 -14 0 3 7 1 6 -7 -3
-7 -9 -20 -14 -28 -11 -8 3 -12 1 -8 -3 12 -13 -50 -52 -77 -49 -17 1 -25 -3
-25 -12 0 -9 -4 -12 -10 -9 -5 3 -10 1 -10 -5 0 -6 -5 -8 -10 -5 -6 4 -17 1
-25 -5 -8 -7 -15 -9 -15 -4 0 5 -5 2 -10 -6 -5 -8 -14 -15 -20 -15 -6 0 -14
-6 -19 -13 -4 -7 -14 -12 -22 -10 -8 2 -14 -4 -13 -12 1 -9 -8 -17 -19 -17
-11 -1 -36 -13 -55 -27 -27 -19 -40 -23 -53 -15 -14 7 -17 6 -13 -5 3 -9 -1
-13 -13 -13 -10 1 -17 -4 -15 -11 1 -8 -2 -11 -7 -7 -10 6 -51 -13 -62 -29 -4
-5 -11 -6 -17 -2 -5 3 -12 0 -15 -8 -3 -8 -14 -12 -24 -10 -13 4 -23 -3 -32
-20 -8 -14 -17 -24 -20 -23 -3 1 -16 -4 -28 -11 -12 -6 -32 -14 -45 -16 -13
-2 -22 -9 -20 -16 1 -6 -2 -9 -7 -5 -14 8 -62 -25 -55 -37 4 -7 0 -7 -12 0
-21 11 -49 -9 -36 -24 4 -5 -1 -2 -10 5 -14 10 -18 11 -18 1 0 -10 -3 -10 -15
0 -12 10 -15 10 -15 -3 0 -22 -36 -42 -43 -24 -3 6 -6 1 -6 -13 -1 -20 -3 -22
-11 -10 -6 10 -10 11 -10 3 0 -7 -9 -13 -20 -13 -20 0 -20 -10 -20 -3245 l0
-3245 1662 0 1663 0 50 33 c63 42 64 43 415 282 102 70 211 143 244 163 32 20
121 78 197 127 76 50 160 102 186 117 26 16 111 68 188 117 77 50 172 109 210
132 39 24 141 88 228 143 290 186 351 224 487 304 286 169 680 378 886 471 60
27 189 92 285 144 96 52 239 127 319 167 80 39 150 76 155 80 6 4 125 66 265
138 140 72 291 151 335 177 94 54 1106 558 1545 768 352 169 399 191 480 222
81 32 170 58 234 69 16 3 93 25 170 50 78 25 182 57 231 71 177 52 222 67 339
116 136 57 394 185 447 222 21 14 48 28 60 32 13 4 121 63 239 130 118 68 238
135 265 150 45 25 237 143 465 285 164 102 389 256 630 430 30 22 80 60 110
84 30 25 89 69 130 97 41 28 98 69 125 90 28 22 118 92 200 156 83 64 188 149
235 187 46 39 94 78 105 87 11 10 41 34 66 55 26 22 82 68 125 104 135 110
234 199 384 344 250 243 404 390 445 426 155 134 214 188 245 219 19 20 77 74
127 121 51 46 96 92 99 102 3 10 22 27 42 38 20 10 80 60 132 109 51 50 96 91
100 91 10 1 137 125 154 152 9 14 33 37 51 50 19 12 35 26 35 31 0 10 44 52
52 50 4 -2 5 4 2 12 -4 9 -1 21 5 29 6 7 9 15 6 17 -2 3 8 13 23 23 15 10 47
48 72 84 25 37 48 69 53 70 4 2 7 13 7 24 0 11 5 18 13 15 13 -5 118 49 186
97 46 33 78 52 218 130 49 27 102 59 118 71 17 12 50 32 75 45 24 12 112 63
195 113 82 49 166 99 185 109 51 29 273 182 355 245 77 58 180 153 168 153 -5
0 -1 6 7 13 8 7 20 21 27 32 6 11 16 19 23 17 6 -1 9 2 6 7 -4 5 -2 12 4 16 6
4 7 11 4 17 -5 8 -1 9 12 4 10 -4 15 -4 12 0 -4 3 0 13 8 21 8 8 12 19 9 24
-4 5 -2 9 4 9 5 0 12 -6 14 -12 5 -12 11 16 8 35 0 4 4 7 10 7 6 0 9 7 5 15
-4 11 1 15 17 15 16 0 18 3 8 9 -10 6 -10 10 -1 16 9 6 9 10 -1 16 -11 7 -10
9 4 9 10 0 16 4 13 9 -4 5 0 12 6 14 10 4 10 6 1 6 -7 1 -13 6 -13 12 0 6 7 9
15 5 13 -5 14 -2 4 16 -10 18 -9 20 5 15 22 -9 32 14 13 28 -21 15 -22 29 -1
21 8 -3 12 -2 9 4 -3 6 -1 10 5 10 6 0 8 5 5 10 -3 6 -1 10 5 10 6 0 8 5 5 10
-3 5 -1 10 6 10 7 0 9 3 6 7 -4 3 1 12 11 20 9 8 10 11 3 7 -9 -5 -7 4 6 22
12 17 25 42 28 57 4 15 12 27 19 27 6 0 4 5 -4 10 -10 6 -11 10 -2 10 6 0 12
7 12 15 0 8 6 15 13 15 8 0 7 4 -3 10 -8 5 -10 10 -4 10 7 0 15 7 18 16 4 10
2 13 -7 8 -9 -6 -9 -5 0 8 7 8 10 18 6 21 -3 4 -1 7 5 7 6 0 9 7 5 17 -4 11
-3 14 5 9 16 -9 15 7 0 22 -9 9 -9 12 3 13 7 1 18 1 22 0 4 -1 0 10 -8 23 -15
22 -15 25 1 34 11 6 13 12 6 16 -6 4 -9 13 -6 21 4 8 10 12 15 9 6 -3 8 6 5
20 -3 16 0 26 7 26 7 0 6 4 -3 10 -9 6 -10 10 -3 10 7 0 11 11 9 28 -1 15 1
34 5 43 4 8 4 21 -1 29 -5 9 -5 19 1 26 15 18 19 54 7 54 -7 0 -6 6 2 15 7 8
8 15 3 15 -5 0 -10 7 -10 15 0 8 4 12 9 9 4 -3 8 2 8 11 0 9 -4 14 -9 11 -5
-3 -9 5 -8 19 0 15 4 22 11 19 6 -3 4 0 -4 8 -16 14 -25 72 -10 63 6 -3 7 1 4
9 -3 9 -11 16 -16 16 -6 0 -8 7 -5 15 4 8 2 17 -4 21 -6 4 -5 12 3 22 8 10 9
13 1 9 -14 -9 -20 0 -27 37 -3 16 -12 36 -20 45 -8 9 -14 18 -14 21 3 15 -15
49 -23 45 -5 -3 -6 1 -3 9 3 8 -4 24 -16 36 -11 11 -18 25 -15 29 2 5 -3 12
-12 15 -15 6 -15 8 -3 16 9 6 10 10 3 10 -17 0 -60 45 -68 70 -3 11 -11 20
-17 20 -6 0 -9 3 -5 6 3 4 1 12 -6 20 -7 7 -22 26 -35 41 -12 15 -31 39 -42
52 -11 13 -17 28 -13 34 3 5 2 7 -4 4 -10 -6 -43 27 -43 44 0 5 -4 7 -10 4 -5
-3 -10 -1 -10 5 0 6 -5 8 -10 5 -5 -3 -10 1 -10 9 0 9 -5 16 -11 16 -5 0 -7 6
-3 13 5 7 0 6 -11 -3 -17 -14 -18 -13 -13 8 4 12 2 22 -4 22 -6 0 2 10 18 22
16 13 32 22 37 20 5 -1 6 1 3 6 -8 13 52 64 66 56 9 -6 9 -3 -1 9 -12 15 -11
17 3 17 10 0 15 4 12 9 -3 4 13 23 34 41 22 19 40 40 40 47 0 7 8 13 19 13 10
0 26 11 35 25 21 32 20 41 -1 24 -16 -13 -17 -12 -5 3 7 9 24 19 37 22 26 7
35 26 13 26 -9 0 -8 3 2 9 8 6 18 7 24 4 5 -4 7 3 3 16 -4 18 -3 20 9 10 12
-10 13 -9 7 7 -6 17 -5 18 12 4 10 -8 16 -10 12 -3 -10 17 14 65 30 59 7 -3
12 -2 11 2 -4 16 14 52 24 46 6 -4 5 2 -1 15 -9 16 -9 21 0 19 6 -2 13 5 14
15 2 10 13 27 26 38 12 10 17 19 11 19 -7 0 -5 8 5 19 34 37 42 49 36 54 -3 3
4 17 15 31 10 14 22 23 25 19 4 -3 5 4 2 16 -2 11 1 21 7 21 6 0 9 3 5 6 -3 3
3 22 14 41 11 19 14 31 7 27 -7 -4 -6 1 3 12 21 25 37 69 45 119 3 22 10 42
15 43 5 2 6 8 3 14 -4 6 0 14 7 19 9 6 10 9 2 9 -8 0 -9 9 -3 29 4 16 6 31 4
34 -2 2 -6 22 -8 45 -3 30 -1 40 7 35 7 -3 3 4 -8 17 -12 14 -14 20 -5 15 12
-6 13 -5 3 6 -16 16 -17 33 -2 23 6 -3 3 5 -6 20 -14 20 -14 26 -4 26 11 0 11
2 2 8 -7 4 -11 18 -8 30 2 12 0 22 -5 22 -5 0 -9 8 -9 18 -2 46 -6 60 -15 55
-5 -4 -7 1 -3 10 3 10 2 17 -4 17 -6 0 -7 5 -4 10 3 6 1 10 -6 10 -8 0 -8 5 2
18 7 9 9 14 5 10 -13 -11 -35 25 -38 61 -2 32 -12 40 -22 19 -3 -7 -3 -1 -1
14 2 19 0 25 -9 22 -8 -3 -16 1 -19 9 -4 10 2 13 20 11 22 -2 24 9 2 12 -5 1
-13 2 -19 3 -5 0 -10 7 -10 15 0 8 -6 17 -12 19 -10 4 -10 6 0 6 6 1 12 6 12
11 0 6 -6 9 -12 8 -7 -2 -12 5 -12 14 1 10 -1 16 -5 13 -12 -7 -43 54 -35 68
5 7 0 6 -11 -3 -11 -9 -16 -10 -11 -2 4 6 2 12 -3 12 -6 0 -11 9 -11 21 0 11
-4 17 -10 14 -5 -3 -10 3 -10 15 0 12 -4 18 -10 15 -6 -4 -9 -1 -8 7 2 7 -3
12 -10 10 -10 -2 -11 4 -7 19 5 13 3 19 -3 15 -5 -3 -25 8 -43 24 -19 16 -30
30 -26 30 4 0 2 6 -5 14 -7 8 -16 12 -20 9 -5 -2 -8 3 -8 12 0 10 -5 13 -12 9
-7 -5 -9 -2 -5 9 4 11 2 14 -9 10 -7 -3 -14 0 -14 7 0 6 -5 8 -10 5 -6 -4 -10
-3 -9 2 3 20 -2 34 -11 28 -5 -3 -10 -1 -10 5 0 6 -5 8 -12 4 -7 -5 -9 0 -6
14 4 15 2 19 -8 15 -8 -3 -14 0 -14 7 0 6 -4 9 -9 6 -5 -3 -12 2 -15 11 -6 15
-8 15 -16 3 -8 -13 -10 -12 -10 3 0 13 -7 18 -22 17 -39 -4 -48 0 -48 16 0 14
-3 14 -15 4 -13 -11 -14 -10 -9 4 4 9 3 16 -2 15 -21 -4 -35 2 -29 11 3 5 -3
10 -14 10 -12 0 -21 5 -21 10 0 6 -7 10 -16 10 -9 0 -12 5 -8 12 5 8 2 9 -9 5
-10 -3 -17 -2 -17 3 0 5 -11 12 -25 16 -14 3 -22 10 -19 15 3 5 -5 9 -18 9
-18 0 -20 2 -8 10 11 7 11 10 2 10 -7 0 -11 4 -8 8 2 4 -5 9 -17 9 -12 1 -23
7 -25 13 -2 5 -10 10 -18 10 -8 0 -14 5 -14 10 0 6 -6 10 -14 10 -7 0 -25 12
-40 27 -16 16 -24 20 -20 10 4 -11 -5 -8 -25 10 -17 15 -31 34 -31 43 0 13 -1
13 -10 0 -5 -8 -10 -10 -10 -5 0 11 -60 50 -72 47 -5 -1 -8 3 -8 9 0 5 -4 7
-10 4 -5 -3 -10 -1 -10 5 0 6 -5 8 -10 5 -5 -3 -10 2 -10 12 0 15 -2 16 -10 3
-5 -8 -10 -10 -10 -4 0 17 -82 55 -123 57 -20 1 -37 5 -37 8 0 4 -11 7 -25 7
-13 0 -22 -5 -19 -10 3 -5 -3 -4 -14 3 -16 10 -23 10 -35 0 -10 -7 -17 -8 -21
-2 -7 11 -46 11 -46 0 0 -4 -11 -6 -25 -4 -14 1 -25 -2 -25 -8 0 -6 -3 -7 -7
-4 -3 4 -13 1 -21 -6 -13 -10 -14 -9 -7 2 5 9 4 12 -2 8 -27 -17 -72 -30 -106
-31 -22 -1 -42 -7 -47 -16 -5 -8 -10 -10 -10 -5 0 13 -47 18 -55 5 -3 -5 -17
2 -30 16 -14 14 -29 23 -34 20 -5 -4 -7 2 -4 12 2 10 -3 24 -11 31 -19 16 -21
35 -3 26 6 -4 1 3 -12 14 -14 13 -18 21 -10 21 11 0 11 2 0 9 -12 8 -9 15 17
39 17 16 28 32 25 36 -3 3 -2 6 4 6 14 0 54 36 47 43 -3 3 4 10 15 17 12 6 34
23 50 38 80 75 101 92 111 92 5 0 10 4 10 10 0 5 11 12 25 16 14 3 22 11 18
17 -4 6 0 8 11 4 10 -4 15 -3 11 3 -3 6 -1 10 5 10 6 0 9 4 5 9 -3 6 4 8 16 6
12 -2 19 -2 16 2 -7 6 17 33 29 33 4 0 18 9 30 21 12 11 31 21 42 22 11 0 19
4 16 8 -2 4 18 23 44 43 26 19 52 40 58 45 13 11 56 26 67 23 5 -1 6 2 3 7 -4
5 4 13 16 16 31 10 59 36 51 48 -3 5 -1 7 5 3 6 -3 13 -2 17 4 4 6 11 8 16 5
5 -4 9 -1 9 5 0 6 4 9 9 6 5 -3 12 2 15 11 6 15 8 15 16 3 8 -13 10 -12 10 3
0 10 8 21 18 24 9 4 41 22 70 40 28 19 52 31 52 28 0 -4 6 0 14 7 19 18 55 43
64 43 4 1 25 12 47 26 53 34 154 82 171 82 7 0 11 4 9 8 -6 9 60 49 81 49 8 0
14 4 14 9 0 10 30 23 40 18 3 -1 16 8 30 21 13 12 31 20 39 17 9 -3 12 -3 8 1
-10 10 52 46 66 38 7 -4 9 -4 5 1 -7 7 73 65 90 65 5 0 29 13 54 29 25 16 49
27 52 24 3 -4 6 -2 6 4 0 10 49 38 63 35 4 -1 7 2 7 6 0 5 19 19 43 32 23 13
61 36 85 52 23 16 42 27 42 24 0 -3 12 6 27 20 14 13 37 27 50 30 13 4 23 10
23 15 0 5 5 9 11 9 6 0 17 7 26 15 8 8 20 12 26 8 7 -3 9 -3 5 2 -11 11 29 38
44 29 7 -4 8 -3 4 4 -6 11 31 38 47 34 4 -1 7 2 7 7 0 13 189 137 203 133 4
-1 7 2 7 8 0 11 60 45 73 42 5 -1 6 2 2 8 -6 10 9 15 30 10 6 -1 7 2 3 6 -7 6
29 32 191 139 8 6 33 22 54 37 22 15 44 25 50 21 6 -3 7 -1 3 6 -4 6 0 14 11
18 10 4 27 16 39 27 11 12 29 28 40 37 10 9 30 30 44 47 14 17 31 31 38 32 15
0 61 32 105 73 16 15 32 25 35 23 2 -3 13 6 24 19 11 14 24 22 30 19 7 -4 8
-2 4 4 -4 7 -3 12 2 12 5 0 23 14 41 30 17 17 31 28 31 26 0 -3 11 5 24 17 48
45 72 64 109 86 20 12 37 27 37 32 0 6 4 8 9 5 5 -4 11 -3 13 2 5 13 91 72
105 72 7 0 13 4 13 8 0 9 117 92 130 92 5 0 10 3 12 8 4 10 246 172 257 172 5
0 11 3 13 8 2 4 73 53 158 109 85 57 160 107 166 112 5 4 21 14 34 21 13 7 33
21 44 31 11 11 23 19 28 19 4 0 43 27 85 60 43 33 84 60 91 60 6 0 12 4 12 9
0 5 21 23 48 39 26 16 64 43 86 61 21 17 43 28 49 24 5 -3 7 -2 4 4 -4 5 6 16
21 24 15 8 29 17 32 20 3 3 25 18 50 34 25 15 86 55 135 88 50 33 95 60 102
60 7 0 11 4 10 7 -2 7 159 120 170 120 4 0 21 11 39 25 18 14 35 25 37 25 4 0
52 30 127 81 19 13 58 35 90 51 14 7 27 16 30 19 6 8 128 80 225 134 39 21 79
44 91 52 11 7 24 10 29 6 4 -5 5 -3 2 3 -4 7 6 17 23 24 16 7 42 23 57 36 15
12 30 21 34 18 4 -2 9 3 13 11 3 8 11 15 19 15 7 0 22 8 33 18 11 9 35 26 54
36 18 11 41 25 49 32 65 53 95 73 104 67 6 -3 7 -1 3 5 -4 7 -3 12 2 12 5 0
28 16 50 36 22 19 44 35 48 34 4 -1 11 5 16 14 5 9 13 16 19 16 5 0 15 5 22
10 34 30 137 99 137 93 0 -4 7 3 16 15 9 14 22 21 31 18 8 -3 11 -2 8 4 -7 11
29 32 40 22 5 -4 5 -1 1 5 -4 8 2 17 18 25 14 6 26 15 26 21 0 5 7 6 16 3 9
-3 12 -2 9 5 -8 12 26 40 39 32 5 -4 6 -2 3 4 -4 5 5 16 18 23 14 7 25 17 25
22 0 5 5 6 10 3 6 -3 10 2 10 11 0 10 3 15 6 11 3 -3 17 6 30 20 13 14 24 23
24 19 0 -7 59 45 136 121 29 28 50 54 46 57 -3 3 0 6 6 6 7 0 12 8 12 18 0 14
2 15 10 2 8 -12 10 -11 10 5 0 11 9 27 19 35 11 7 18 17 15 21 -2 4 6 18 19
31 13 13 23 32 21 41 -1 9 1 15 6 12 10 -6 22 24 14 36 -3 5 0 9 7 9 7 0 9 3
6 7 -4 3 1 15 10 26 10 11 12 17 6 13 -7 -4 -13 -2 -13 3 0 6 5 11 11 11 6 0
8 7 5 16 -3 8 -2 12 4 9 6 -3 10 5 10 19 0 14 5 28 10 31 8 5 7 12 -2 23 -10
12 -10 14 0 8 6 -4 12 -3 12 3 0 5 -4 12 -9 15 -10 7 -9 31 2 42 12 12 8 62
-5 67 -10 4 -10 6 -1 6 9 1 10 8 3 25 -6 16 -5 28 3 36 9 10 9 11 -2 5 -11 -6
-13 -4 -8 8 4 12 1 17 -11 17 -16 1 -16 1 0 11 9 5 15 16 12 24 -4 8 -10 12
-15 9 -5 -3 -5 5 0 19 8 20 6 26 -12 35 -12 6 -16 11 -8 11 11 1 11 4 0 18 -8
9 -9 14 -3 10 6 -3 11 0 11 8 0 8 -4 12 -8 10 -7 -5 -33 50 -28 60 2 4 -4 11
-13 16 -11 6 -15 16 -11 26 4 11 3 14 -5 9 -7 -4 -12 -2 -12 4 0 6 -7 19 -16
27 -8 9 -13 24 -11 35 3 10 2 16 -2 14 -4 -3 -13 11 -20 30 -7 18 -17 34 -22
34 -5 0 -9 7 -9 16 0 8 -4 13 -8 10 -4 -2 -14 9 -21 25 -7 16 -17 29 -22 29
-4 0 -24 16 -44 35 -19 20 -35 33 -35 30 0 -2 -9 3 -19 12 -11 9 -18 20 -15
25 3 4 -1 5 -8 3 -17 -7 -61 33 -52 47 4 6 -1 8 -15 3 -12 -4 -21 -2 -21 4 0
6 5 11 12 11 6 0 8 3 5 6 -4 4 -13 2 -20 -5 -11 -9 -17 -7 -28 6 -12 16 -12
17 2 6 13 -10 16 -10 16 1 0 10 -10 13 -33 10 -22 -3 -34 1 -38 11 -3 8 -15
15 -26 15 -11 0 -20 5 -20 10 0 6 -3 9 -7 9 -5 -1 -21 -1 -38 0 -23 1 -27 3
-15 11 13 8 12 10 -2 10 -10 0 -18 -5 -18 -10 0 -6 -10 -2 -22 9 -16 16 -25
18 -35 10 -12 -10 -17 -6 -15 12 1 3 -6 6 -14 6 -9 0 -13 -6 -9 -16 4 -11 1
-10 -15 4 -12 11 -20 13 -20 6 0 -8 -6 -9 -17 -3 -10 5 -24 7 -32 4 -10 -3
-11 0 -5 9 6 12 5 12 -8 1 -13 -10 -17 -10 -21 0 -4 10 -6 10 -6 1 -1 -7 -6
-13 -12 -13 -5 0 -8 4 -5 8 7 11 -51 8 -61 -3 -5 -4 -2 -5 6 0 10 6 12 4 7 -4
-6 -9 -11 -9 -21 -1 -8 7 -15 7 -19 1 -3 -5 -16 -7 -28 -3 -14 3 -19 1 -14 -6
5 -8 2 -10 -8 -6 -9 3 -13 11 -9 18 4 6 -1 4 -12 -4 -10 -8 -20 -14 -22 -12
-10 7 -23 0 -17 -10 5 -9 2 -9 -9 1 -9 7 -17 9 -17 4 0 -6 -12 -9 -26 -7 -17
1 -24 -2 -21 -10 3 -8 -5 -11 -25 -10 -21 2 -26 -1 -19 -10 7 -9 3 -12 -17
-11 -16 0 -26 -5 -25 -12 2 -8 -4 -10 -14 -6 -11 4 -14 3 -9 -6 4 -6 4 -11 -1
-10 -25 4 -43 -3 -44 -18 0 -16 -1 -16 -8 0 -6 17 -8 17 -20 3 -7 -9 -17 -13
-21 -11 -5 3 -25 -4 -45 -15 -21 -12 -34 -15 -30 -8 4 7 -1 4 -10 -7 -9 -11
-20 -20 -26 -20 -5 0 -14 -7 -19 -15 -9 -13 -10 -13 -10 0 0 13 -2 13 -9 0 -6
-8 -8 -17 -5 -21 2 -4 -4 -5 -15 -2 -12 3 -24 -3 -33 -16 -8 -12 -18 -18 -21
-15 -3 3 -19 -3 -35 -15 -17 -12 -37 -21 -46 -21 -9 0 -16 -4 -16 -10 0 -5 -9
-10 -20 -10 -11 0 -20 -4 -20 -10 0 -5 -7 -7 -15 -4 -8 4 -15 1 -15 -5 0 -9
-5 -9 -20 -1 -11 6 -20 7 -19 3 4 -23 -2 -32 -18 -26 -11 4 -14 3 -9 -5 5 -9
0 -9 -20 -2 -24 9 -25 9 -14 -5 15 -18 -1 -20 -19 -2 -10 10 -11 8 -5 -8 7
-17 6 -18 -8 -7 -12 9 -18 10 -23 2 -4 -7 -16 -10 -26 -7 -11 3 -17 1 -13 -4
3 -5 0 -9 -6 -9 -6 0 -9 -4 -6 -9 3 -4 -6 -6 -19 -3 -14 2 -25 0 -25 -5 0 -8
-17 -12 -63 -13 -11 -1 -17 -6 -14 -14 4 -9 -2 -11 -20 -8 -17 3 -24 1 -19 -6
4 -6 -2 -8 -14 -5 -15 4 -20 0 -20 -13 0 -15 -2 -16 -9 -5 -6 10 -13 10 -28 3
-13 -7 -24 -8 -31 -1 -7 5 -10 6 -7 3 3 -4 -3 -13 -13 -20 -13 -9 -21 -10 -32
-1 -8 6 -12 7 -8 3 11 -14 -25 -36 -38 -25 -8 6 -17 4 -27 -6 -18 -17 -31 -20
-21 -4 5 8 1 8 -13 0 -11 -6 -24 -7 -29 -3 -5 4 -3 0 4 -9 10 -13 8 -15 -17
-11 -16 2 -32 -1 -35 -7 -4 -6 -17 -11 -30 -11 -12 0 -26 -3 -30 -7 -4 -5 -11
-8 -14 -8 -4 0 -33 -13 -66 -28 -32 -15 -65 -27 -73 -27 -8 0 -11 -5 -7 -12 5
-7 2 -9 -9 -5 -9 3 -18 0 -21 -9 -3 -8 -12 -14 -21 -14 -8 0 -15 -5 -15 -12 0
-6 -3 -8 -7 -5 -3 4 -11 3 -17 -2 -29 -24 -127 -71 -136 -66 -6 3 -7 -1 -4
-10 4 -9 2 -15 -3 -13 -14 5 -106 -44 -130 -69 -12 -13 -26 -23 -30 -23 -5 0
-16 -7 -26 -15 -9 -8 -22 -15 -27 -15 -6 0 -10 -4 -10 -10 0 -5 -7 -10 -15
-10 -7 0 -18 -7 -23 -16 -5 -9 -13 -16 -18 -16 -5 0 -8 -4 -6 -9 1 -5 -6 -9
-16 -9 -10 0 -24 -9 -32 -20 -11 -15 -17 -17 -29 -7 -12 9 -13 9 -7 0 4 -8 -5
-20 -26 -32 -18 -11 -39 -25 -45 -31 -7 -6 -13 -8 -13 -5 0 3 -6 0 -14 -7 -8
-7 -12 -16 -10 -20 2 -3 -6 -4 -18 0 -14 3 -19 2 -14 -6 4 -7 1 -12 -8 -12 -9
0 -16 -5 -16 -12 0 -6 -3 -8 -6 -5 -4 4 -14 -1 -23 -11 -9 -9 -36 -27 -61 -40
-68 -34 -113 -62 -128 -80 -7 -10 -10 -11 -7 -4 6 11 3 11 -14 0 -12 -7 -21
-16 -21 -21 0 -4 -5 -5 -10 -2 -6 3 -13 -1 -16 -9 -3 -9 -10 -13 -15 -10 -5 3
-9 1 -9 -4 0 -5 -18 -15 -40 -22 -22 -7 -40 -16 -40 -21 0 -4 -11 -10 -25 -13
-14 -4 -25 -11 -25 -17 0 -6 -4 -8 -9 -4 -5 3 -17 -2 -25 -11 -9 -8 -16 -13
-16 -9 0 3 -24 -7 -54 -24 -30 -16 -57 -27 -60 -24 -3 4 -6 1 -6 -6 0 -7 -4
-9 -10 -6 -5 3 -10 1 -10 -5 0 -6 -4 -8 -10 -5 -5 3 -10 1 -10 -4 0 -6 -8 -11
-18 -11 -10 0 -27 -7 -38 -15 -12 -8 -24 -11 -28 -8 -3 3 -6 1 -6 -6 0 -7 -4
-9 -10 -6 -5 3 -10 1 -10 -6 0 -6 -8 -9 -20 -6 -11 3 -18 1 -14 -4 5 -8 -9
-13 -28 -10 -5 0 -8 -4 -8 -11 0 -6 -3 -8 -6 -5 -4 4 -20 -3 -35 -14 -16 -11
-29 -18 -29 -14 0 3 -10 0 -22 -7 -13 -7 -29 -11 -37 -9 -8 1 -10 -2 -6 -10 5
-7 3 -10 -6 -7 -8 3 -20 -1 -27 -9 -8 -7 -18 -11 -23 -8 -5 4 -9 2 -9 -4 0 -6
-7 -8 -15 -5 -8 4 -15 1 -15 -6 0 -6 -4 -8 -10 -5 -5 3 -10 1 -10 -5 0 -7 -6
-10 -14 -7 -8 3 -17 -1 -20 -9 -3 -8 -12 -14 -20 -14 -13 0 -50 -16 -96 -42
-8 -4 -26 -13 -40 -18 -14 -6 -38 -17 -55 -25 -79 -36 -106 -45 -117 -39 -6 4
-8 3 -5 -3 4 -5 -12 -16 -33 -23 -22 -7 -40 -17 -40 -22 0 -5 -4 -6 -10 -3 -5
3 -10 1 -10 -5 0 -6 -4 -9 -9 -5 -5 3 -12 1 -16 -5 -4 -6 -11 -8 -16 -5 -5 4
-9 1 -9 -5 0 -7 -7 -10 -15 -6 -8 3 -15 1 -15 -4 0 -6 -4 -10 -9 -10 -5 0 -22
-5 -38 -12 -15 -6 -30 -12 -33 -13 -38 -10 -108 -50 -103 -58 4 -6 0 -8 -9 -5
-8 3 -49 -11 -91 -31 -42 -21 -77 -33 -77 -27 0 6 -6 1 -14 -10 -8 -11 -33
-29 -55 -39 -22 -11 -41 -23 -41 -27 0 -5 -7 -8 -15 -8 -8 0 -15 -4 -15 -8 0
-5 -18 -16 -40 -26 -22 -10 -38 -22 -35 -27 4 -5 0 -6 -8 -3 -8 3 -18 0 -22
-5 -3 -6 -10 -9 -15 -6 -5 3 -20 -1 -33 -10 -13 -8 -35 -16 -50 -17 -15 -1
-27 -6 -27 -10 0 -4 -4 -7 -9 -6 -14 4 -50 -22 -91 -64 -20 -21 -42 -38 -49
-38 -7 0 -9 -4 -6 -10 3 -5 2 -10 -4 -10 -5 0 -17 -8 -27 -17 -10 -10 -20 -18
-23 -19 -18 -3 -48 -20 -62 -35 -12 -15 -18 -16 -29 -6 -10 9 -11 9 -6 0 4 -7
3 -13 -2 -13 -4 0 -18 -9 -30 -21 -12 -11 -27 -17 -34 -13 -7 4 -8 3 -4 -5 9
-14 -20 -45 -34 -36 -5 3 -10 -1 -10 -9 0 -10 -6 -13 -17 -9 -13 5 -15 2 -10
-11 4 -9 3 -15 -2 -11 -14 8 -57 -11 -81 -37 -19 -21 -21 -21 -15 -3 6 18 5
18 -7 -1 -7 -12 -21 -20 -30 -19 -10 2 -16 -2 -15 -8 1 -6 -4 -11 -11 -12 -7
0 -17 -6 -21 -14 -5 -7 -13 -11 -19 -7 -6 3 -13 -3 -17 -14 -4 -11 -10 -18
-14 -16 -4 3 -15 -3 -24 -12 -23 -25 -47 -44 -47 -37 0 3 -15 -5 -32 -18 -18
-14 -38 -23 -44 -20 -6 2 -17 -3 -24 -12 -7 -8 -19 -15 -27 -15 -7 0 -16 -7
-19 -15 -4 -8 -10 -12 -15 -10 -4 3 -17 -3 -29 -15 -12 -12 -20 -15 -20 -7 0
6 -5 4 -11 -6 -6 -9 -15 -15 -20 -11 -5 3 -8 0 -7 -7 2 -7 -7 -15 -20 -18 -13
-3 -23 -10 -23 -16 1 -5 -3 -10 -9 -10 -5 0 -26 -14 -45 -32 -19 -18 -35 -29
-35 -25 0 4 -7 -2 -16 -13 -8 -11 -19 -21 -24 -21 -6 -1 -15 -2 -21 -3 -5 0
-7 -6 -3 -13 5 -8 2 -9 -10 -5 -10 4 -19 1 -22 -8 -3 -8 -13 -11 -22 -8 -9 4
-14 3 -10 -2 4 -4 -2 -14 -15 -20 -12 -7 -34 -19 -49 -27 -15 -8 -25 -18 -21
-21 3 -4 2 -7 -3 -7 -5 0 -25 -10 -44 -22 -19 -12 -37 -22 -40 -23 -16 -2 -68
-40 -64 -47 4 -7 -9 -10 -32 -7 -3 0 -14 -9 -23 -20 -10 -11 -21 -18 -25 -14
-3 3 -6 1 -6 -6 0 -7 -4 -9 -10 -6 -5 3 -10 -1 -10 -9 0 -9 -4 -17 -10 -17 -5
-1 -15 -2 -21 -3 -6 0 -16 -8 -22 -17 -7 -9 -16 -16 -20 -17 -9 0 -44 -25 -79
-54 -11 -10 -24 -15 -29 -12 -5 3 -6 -3 -2 -13 3 -10 3 -15 -1 -11 -11 9 -46
-24 -39 -36 4 -6 0 -5 -9 2 -14 11 -17 10 -23 -8 -4 -12 -9 -19 -12 -16 -3 3
-16 -5 -28 -19 -13 -13 -25 -22 -27 -20 -2 3 -24 -13 -48 -35 -41 -37 -53 -44
-72 -41 -5 0 -8 -6 -8 -14 0 -14 -12 -20 -33 -16 -5 1 -11 -8 -14 -19 -3 -11
-9 -18 -13 -15 -5 3 -25 -12 -45 -32 -21 -21 -34 -31 -30 -23 4 8 -3 4 -14
-10 -11 -14 -21 -22 -21 -18 0 4 -12 -4 -27 -18 -15 -14 -33 -22 -42 -19 -8 3
-12 3 -8 -1 10 -10 -44 -44 -57 -37 -6 4 -5 -1 3 -11 8 -9 10 -16 5 -15 -22 4
-35 -2 -28 -13 4 -6 3 -8 -3 -5 -6 4 -21 -2 -34 -12 -13 -10 -32 -17 -42 -15
-9 1 -15 -2 -11 -7 3 -5 -2 -9 -10 -9 -9 0 -16 -4 -16 -10 0 -5 -6 -10 -14
-10 -7 0 -19 -7 -26 -15 -7 -8 -16 -12 -21 -9 -5 3 -9 0 -9 -6 0 -6 -4 -8 -10
-5 -5 3 -10 1 -10 -5 0 -7 -6 -10 -14 -7 -8 3 -17 -1 -20 -9 -3 -9 -10 -12
-16 -9 -6 3 -13 -1 -16 -10 -5 -12 -9 -13 -20 -4 -12 10 -13 8 -7 -6 5 -15 3
-17 -11 -12 -9 4 -15 3 -12 -2 3 -5 -1 -12 -10 -15 -10 -4 -13 -2 -8 7 6 9 4
9 -8 -1 -21 -17 -268 -19 -268 -2 0 3 -9 6 -20 7 -11 1 -18 -2 -15 -7 3 -6 -1
-7 -10 -4 -14 6 -14 8 2 20 17 13 17 14 1 8 -20 -7 -25 11 -5 20 6 4 2 4 -11
2 -17 -3 -22 -1 -18 9 3 8 0 17 -6 21 -7 5 -8 2 -3 -6 6 -9 4 -11 -4 -6 -9 6
-8 13 6 29 10 11 13 17 6 14 -16 -10 -43 3 -43 20 0 10 -6 13 -16 9 -8 -3 -12
-2 -9 4 3 6 2 10 -3 10 -5 0 -9 7 -9 15 0 8 4 12 9 9 4 -3 8 0 8 5 0 6 -7 11
-15 11 -8 0 -15 5 -15 11 0 5 5 7 12 3 7 -5 8 -3 4 5 -5 7 -14 10 -21 7 -16
-6 -27 18 -18 41 5 12 3 14 -8 8 -12 -7 -12 -6 -1 7 11 14 10 18 -5 28 -15 10
-15 11 -1 6 12 -4 16 0 13 16 -2 11 -9 26 -14 32 -7 9 -7 17 2 26 9 10 9 11 0
6 -7 -4 -13 -2 -13 3 0 6 5 11 10 11 6 0 5 6 -2 14 -7 8 -17 11 -23 8 -5 -3
-5 1 1 9 18 24 24 48 12 55 -7 4 -8 3 -4 -4 4 -7 3 -12 -3 -12 -5 0 -8 14 -6
30 2 17 -2 36 -11 44 -11 11 -11 16 -1 19 9 4 9 8 -2 15 -11 8 -11 10 0 14 12
5 12 9 1 28 -8 12 -9 19 -3 16 5 -4 12 -2 16 4 3 5 -2 10 -12 10 -15 0 -16 2
-3 10 13 9 13 10 0 10 -12 0 -13 2 -1 9 11 7 11 9 0 14 -9 4 -10 6 -2 6 7 1
10 8 7 16 -4 9 -11 12 -18 8 -7 -5 -4 0 6 9 23 20 24 28 6 39 -10 7 -10 9 2 9
13 0 13 1 0 10 -12 8 -12 10 -1 10 9 0 12 9 9 29 -3 19 0 27 8 24 8 -3 11 9
10 36 -1 23 2 37 8 34 5 -4 7 3 4 15 -4 13 -1 22 5 22 8 0 7 3 -1 9 -11 6 -10
10 4 15 13 5 15 9 5 19 -9 9 -6 16 11 29 16 13 17 16 5 12 -13 -5 -16 -2 -11
10 3 9 10 16 15 16 5 0 9 5 9 11 0 5 -6 7 -12 4 -7 -4 -4 1 6 9 14 11 15 16 6
16 -9 0 -8 5 5 14 17 12 18 16 5 32 -13 16 -13 17 0 12 12 -5 16 1 14 22 -1
18 4 31 13 34 10 4 13 16 10 40 -4 26 -1 33 9 29 17 -6 18 9 2 25 -9 9 -8 12
6 12 9 0 14 5 11 10 -3 6 1 13 10 16 14 6 14 8 -2 21 -17 14 -17 14 1 9 15 -5
17 -2 13 14 -3 13 -1 18 6 13 6 -4 8 1 5 15 -4 13 0 23 9 26 8 3 11 10 8 16
-3 5 -1 10 5 10 6 0 8 4 5 10 -3 5 -1 19 5 30 8 15 8 20 -2 20 -8 0 -6 5 4 11
10 5 15 16 12 24 -4 8 -1 15 6 15 6 0 8 5 5 10 -3 6 -2 10 4 10 6 0 8 7 5 15
-3 8 -2 20 2 27 5 7 10 22 11 33 2 10 8 22 13 25 6 3 11 18 12 32 1 15 6 24
10 22 8 -5 12 10 9 35 -2 8 2 10 10 5 9 -5 11 -1 7 14 -4 12 -3 20 2 17 4 -3
11 3 14 12 4 9 1 20 -6 25 -9 5 -6 8 10 8 13 0 20 4 17 10 -4 6 -12 7 -18 3
-7 -4 -6 0 2 10 7 9 10 17 7 17 -4 0 2 14 14 30 12 17 26 27 32 24 7 -4 8 -2
4 4 -4 6 -14 8 -24 5 -12 -5 -11 1 7 20 20 22 22 27 8 27 -9 0 -17 5 -17 11 0
5 5 7 10 4 10 -6 19 9 24 39 1 9 11 23 22 31 10 8 15 15 9 14 -5 -1 -16 -1
-24 0 -16 1 -5 16 12 16 12 0 13 14 6 45 -2 8 2 15 9 16 26 3 26 5 8 19 -11 8
-15 15 -9 15 7 0 19 7 28 16 13 14 14 19 3 25 -10 7 -10 9 3 9 12 0 15 8 12
33 -4 26 -2 29 7 17 10 -13 11 -12 6 3 -3 10 -6 20 -6 23 0 2 -8 1 -17 -2 -17
-5 -17 -5 0 6 9 6 14 16 11 22 -4 7 -2 8 5 4 6 -4 9 -12 6 -17 -4 -5 -4 -9 -1
-9 3 0 10 10 17 21 8 15 8 19 0 15 -15 -9 -14 -4 4 30 8 16 15 37 15 47 0 9 5
17 10 17 6 0 10 5 10 11 0 5 -4 8 -8 5 -5 -3 -9 1 -9 9 0 8 8 12 20 10 16 -4
17 -2 6 11 -10 13 -10 17 2 24 19 12 19 31 0 55 -15 19 -15 19 3 5 18 -14 19
-13 14 8 -4 14 -1 26 10 33 12 7 14 12 5 15 -18 8 -16 27 2 20 18 -7 20 5 3
23 -10 11 -10 13 0 7 6 -4 12 -2 12 4 0 6 5 8 11 4 7 -4 6 2 -2 17 -11 22 -11
23 5 10 15 -12 17 -12 14 0 -2 8 -7 17 -13 21 -6 5 -5 8 3 8 6 0 12 12 12 26
0 14 4 23 9 20 11 -7 20 26 16 59 -2 19 2 25 17 25 11 0 17 4 13 10 -3 5 -13
6 -22 3 -12 -5 -12 -2 3 15 20 24 29 29 18 10 -4 -8 -3 -9 2 -5 5 5 9 14 10
20 0 7 4 27 9 45 6 24 12 32 24 28 11 -4 10 -2 -3 9 -11 8 -15 15 -8 15 7 0 9
7 5 18 -6 15 -5 16 12 2 18 -15 18 -14 1 12 -18 27 -18 27 5 23 16 -3 20 -2
12 6 -12 12 -6 39 11 52 7 5 2 7 -12 4 -12 -3 -20 -1 -16 4 3 5 11 9 17 9 16
0 38 48 26 56 -6 3 -6 10 -1 17 17 22 21 46 10 53 -6 4 -8 3 -4 -4 3 -6 2 -13
-3 -16 -5 -4 -12 -2 -15 3 -4 5 -2 12 4 16 6 4 8 11 5 16 -3 5 2 6 11 2 11 -4
15 -3 11 4 -4 6 -1 14 5 16 10 4 10 6 1 6 -7 1 -13 6 -13 12 0 5 5 7 10 4 6
-3 10 3 10 14 0 12 5 21 11 21 6 0 9 7 5 15 -3 8 -1 15 4 15 6 0 10 9 10 21 0
11 4 18 8 15 10 -6 9 24 -1 41 -4 6 0 16 8 23 8 7 15 19 15 27 0 8 4 11 10 8
6 -3 7 1 4 10 -4 10 -2 15 6 13 7 -2 13 7 15 20 1 12 -3 22 -9 23 -6 0 -2 4 8
8 11 4 20 15 22 24 1 11 -2 14 -9 10 -7 -4 -6 1 2 10 7 9 18 14 25 10 6 -4 5
0 -2 9 -10 13 -10 17 0 20 10 4 10 9 -2 23 -9 11 -10 16 -2 11 8 -5 12 -1 13
11 0 16 1 16 9 -2 8 -19 9 -19 9 2 1 12 -5 24 -11 26 -8 3 -7 6 4 6 9 1 20 6
24 13 5 7 2 9 -7 4 -10 -5 -9 -4 1 6 9 7 15 23 14 36 -1 17 3 22 15 17 8 -3
12 -3 8 1 -4 4 -2 13 4 20 6 8 9 21 5 29 -3 9 -2 13 4 10 6 -3 10 3 10 14 0
11 7 27 16 35 14 15 14 16 -3 17 -16 0 -16 1 2 9 11 5 15 9 9 9 -6 1 -11 8
-11 16 0 12 3 12 15 3 11 -10 13 -8 10 12 -2 18 2 25 12 24 17 -1 21 32 6 55
-6 9 -5 12 0 8 6 -3 16 -1 24 4 13 8 13 10 0 20 -12 9 -11 10 6 6 13 -3 21 1
21 10 0 8 -6 12 -15 8 -13 -5 -13 -3 -1 11 8 10 12 18 9 20 -3 1 -1 6 4 11 5
5 6 2 2 -7 -4 -8 -1 -6 8 5 8 11 20 26 26 33 6 6 7 12 2 12 -4 0 -14 -6 -22
-12 -8 -7 -7 -4 3 8 9 11 14 24 10 29 -5 4 -3 6 2 2 6 -3 17 3 24 15 7 11 8
17 2 13 -6 -3 -11 -2 -11 3 0 6 7 12 15 16 8 3 15 9 14 13 -3 20 2 27 11 13 7
-11 8 -6 5 18 -2 21 0 30 7 26 7 -5 9 3 5 22 -3 16 -4 23 -1 17 3 -7 11 -13
16 -13 6 0 8 3 5 7 -4 3 -2 12 5 20 9 11 7 12 -8 7 -16 -5 -15 -3 4 13 18 15
20 21 10 31 -11 11 -9 12 6 6 13 -5 17 -4 13 3 -4 6 -3 13 2 15 6 1 12 15 15
30 2 14 9 35 15 46 6 11 7 23 3 28 -4 5 1 3 10 -4 14 -11 16 -10 11 6 -2 11 0
23 6 26 5 4 7 14 4 23 -4 11 -3 14 5 9 8 -5 12 1 12 17 0 14 7 28 16 31 8 3
13 10 10 15 -3 5 1 12 10 15 8 3 12 10 9 16 -3 5 -3 10 2 10 4 0 9 12 10 27 0
15 9 33 18 39 10 7 18 25 18 39 0 18 4 25 14 21 7 -3 13 0 12 7 -3 27 2 37 19
38 9 0 12 3 5 6 -14 5 2 42 25 56 7 5 10 12 7 18 -4 5 -1 9 5 9 6 0 9 4 6 9
-3 5 1 12 10 15 9 4 14 13 10 21 -3 8 -1 15 5 15 6 0 8 8 5 17 -4 10 -4 14 0
10 10 -9 37 30 29 43 -3 6 -1 10 5 10 6 0 8 5 5 10 -4 6 -3 10 2 9 4 -1 15 -1
23 0 13 1 13 2 0 11 -13 9 -12 12 4 25 11 8 14 15 7 15 -7 0 -9 5 -6 10 4 6
10 8 15 5 5 -3 11 -1 14 4 4 5 2 12 -3 16 -6 3 -2 14 10 26 11 11 17 25 13 31
-4 6 -3 8 3 5 6 -4 13 4 17 16 3 13 16 29 28 35 13 6 17 11 11 11 -7 1 -13 6
-13 12 0 5 5 7 11 3 7 -4 10 -1 7 7 -3 8 4 22 14 31 12 10 17 22 12 29 -5 9
-2 10 9 6 12 -4 14 -2 10 10 -4 11 -2 14 5 9 13 -8 28 37 17 53 -3 6 0 8 9 5
10 -4 16 4 21 26 5 21 12 30 20 26 10 -3 12 0 8 11 -4 11 -2 14 5 9 7 -4 10
-2 7 6 -3 8 4 23 15 35 11 12 20 27 20 32 0 6 10 20 23 32 12 12 17 19 10 15
-6 -3 -15 -1 -19 5 -4 7 -3 10 2 6 5 -3 18 1 29 9 17 13 18 16 5 24 -13 8 -12
10 3 10 10 0 15 5 12 10 -3 6 1 10 9 10 10 0 13 6 10 15 -4 9 2 18 17 24 13 5
18 10 11 10 -10 1 -10 5 2 17 9 8 19 26 22 40 3 13 10 24 15 24 5 0 9 7 9 16
0 8 4 12 10 9 6 -3 7 1 4 9 -3 9 -1 16 6 16 6 0 8 5 5 10 -3 6 -2 10 4 10 6 0
7 7 4 17 -4 10 -2 14 5 9 12 -7 27 29 17 44 -3 6 1 7 9 4 12 -4 16 0 16 16 0
11 4 18 10 15 5 -3 7 0 5 7 -3 8 2 22 11 33 8 11 12 14 8 6 -4 -9 -3 -12 3 -8
6 4 10 20 9 36 -1 17 2 28 6 25 4 -3 8 3 8 13 0 15 2 16 10 3 5 -8 10 -10 10
-4 0 5 -5 15 -12 22 -9 9 -8 12 6 12 15 0 16 3 6 15 -11 13 -10 14 5 9 11 -5
16 -4 12 3 -4 5 0 19 8 29 8 10 15 27 15 37 0 10 3 16 8 14 4 -3 8 7 9 21 0
15 6 28 12 30 6 2 11 8 11 13 0 6 -5 7 -12 3 -7 -4 -8 -3 -4 4 4 7 15 12 24
12 12 0 13 3 5 8 -14 9 -5 26 17 35 11 4 10 6 -4 6 -19 1 -19 1 0 19 11 9 19
27 18 39 -1 12 3 20 7 17 5 -3 9 0 9 5 0 18 -5 26 -13 23 -5 -1 -6 2 -2 7 3 6
13 7 23 4 9 -3 14 -3 10 2 -4 4 -2 15 5 23 10 13 9 14 -3 7 -12 -7 -13 -6 -3
7 7 8 10 18 6 21 -3 4 -1 7 6 7 8 0 10 7 6 19 -3 11 -1 22 4 26 7 3 8 0 5 -9
-3 -9 -1 -16 4 -16 6 0 9 9 7 20 -5 26 4 52 16 44 5 -3 6 2 3 11 -4 9 1 22 12
31 19 15 19 15 0 10 -16 -6 -17 -4 -6 9 7 8 16 12 21 9 5 -3 6 2 3 10 -3 9
-10 14 -14 11 -7 -4 -7 10 -1 33 1 1 10 -2 21 -8 18 -10 19 -8 10 14 -6 17 -6
27 2 32 7 5 8 3 3 -6 -5 -9 -4 -11 3 -6 9 5 9 13 1 28 -6 11 -7 18 -2 15 4 -3
13 6 20 19 7 16 8 22 1 17 -7 -3 -8 -1 -4 5 4 7 15 12 24 12 15 1 14 2 -2 12
-18 10 -18 11 5 30 13 11 19 17 12 14 -6 -4 -14 -2 -18 4 -3 5 -1 10 4 10 6 0
11 9 11 21 0 11 4 17 10 14 7 -4 9 3 6 19 -3 14 0 26 5 26 6 0 7 5 4 10 -4 6
-1 18 6 26 10 13 10 17 -2 25 -11 7 -11 9 3 9 19 0 20 20 3 32 -5 4 -1 8 10 8
16 0 17 2 6 9 -11 7 -12 13 -3 23 9 11 9 17 0 26 -9 9 -9 12 1 12 9 0 12 11 9
34 -3 24 0 32 9 29 7 -3 13 0 13 6 0 6 -6 11 -12 11 -9 0 -8 4 2 10 10 6 11
10 3 10 -7 0 -13 5 -13 11 0 5 6 7 13 3 7 -5 6 0 -3 11 -9 11 -10 16 -2 11 8
-5 12 0 13 16 2 46 -3 83 -13 89 -15 10 -11 22 9 31 14 6 12 7 -8 5 -17 -2
-26 1 -26 10 0 8 7 11 14 9 9 -4 11 -1 7 5 -4 6 0 16 7 21 10 7 7 7 -8 3 -22
-6 -31 4 -16 19 11 10 12 37 2 30 -5 -3 -6 -10 -3 -16 4 -6 2 -8 -3 -5 -6 4
-8 22 -3 45 6 36 5 39 -16 36 -21 -2 -22 0 -13 18 8 15 8 19 0 14 -11 -7 -13
-2 -13 52 0 22 -7 38 -19 45 -11 7 -19 18 -19 25 0 8 -5 10 -12 6 -7 -5 -9 -2
-5 9 3 9 0 18 -9 21 -8 3 -14 15 -14 27 0 18 -3 19 -15 9 -12 -10 -14 -8 -10
9 3 16 -6 28 -35 46 -21 13 -40 30 -43 37 -4 10 -6 10 -6 -1 -1 -9 -6 -8 -18
6 -10 10 -16 14 -13 8 3 -6 -2 -4 -10 5 -9 9 -21 15 -28 12 -7 -2 -16 6 -19
18 -4 16 -8 18 -14 8 -7 -10 -9 -9 -9 4 0 12 -5 15 -17 11 -11 -4 -14 -3 -9 5
5 8 0 12 -14 12 -14 0 -19 4 -14 12 5 8 2 9 -10 5 -9 -4 -15 -3 -13 1 3 4 -1
13 -9 20 -11 10 -14 10 -15 0 0 -7 -4 -4 -9 7 -6 14 -9 15 -10 5 0 -12 -3 -11
-11 3 -6 9 -14 15 -20 12 -5 -4 -9 -1 -9 4 0 6 -9 11 -19 11 -11 0 -23 5 -26
10 -4 6 -11 8 -16 4 -5 -3 -16 0 -24 6 -12 10 -15 9 -15 -6 -1 -18 -1 -18 -11
-1 -8 14 -14 15 -31 6 -14 -8 -18 -8 -14 0 5 7 -3 10 -23 7 -18 -2 -31 1 -31
8 0 6 -7 2 -15 -8 -15 -20 -15 -20 -15 0 0 16 -2 17 -10 4 -8 -12 -10 -12 -10
-1 0 10 -3 11 -13 2 -10 -8 -17 -7 -27 2 -10 10 -11 9 -5 -2z m750 -401 c3 -5
-1 -10 -10 -10 -9 0 -13 5 -10 10 3 6 8 10 10 10 2 0 7 -4 10 -10z m-1972
-613 c-15 -19 -30 -32 -32 -30 -5 3 49 63 57 63 2 0 -9 -15 -25 -33z m7504
-3302 c0 -8 -4 -15 -9 -15 -10 0 -11 14 -1 23 9 10 10 9 10 -8z m-7213 -431
c3 -8 2 -12 -4 -9 -6 3 -10 10 -10 16 0 14 7 11 14 -7z m-244 -754 c0 -5 -4
-10 -10 -10 -5 0 -10 5 -10 10 0 6 5 10 10 10 6 0 10 -4 10 -10z m-95 -180
c-3 -5 -12 -10 -18 -10 -7 0 -6 4 3 10 19 12 23 12 15 0z m2 -105 c0 -8 -4
-12 -9 -9 -5 3 -6 10 -3 15 9 13 12 11 12 -6z m-122 -315 c-3 -5 -12 -10 -18
-10 -7 0 -6 4 3 10 19 12 23 12 15 0z m-365 -1140 c0 -5 -5 -10 -11 -10 -5 0
-7 5 -4 10 3 6 8 10 11 10 2 0 4 -4 4 -10z m67 -1112 c-3 -8 -6 -5 -6 6 -1 11
2 17 5 13 3 -3 4 -12 1 -19z m-7247 -10524 c0 -8 -19 -13 -24 -6 -3 5 1 9 9 9
8 0 15 -2 15 -3z m-59 -21 c13 -16 12 -17 -3 -4 -10 7 -18 15 -18 17 0 8 8 3
21 -13z m194 -183 c-3 -5 -12 -10 -18 -10 -7 0 -6 4 3 10 19 12 23 12 15 0z
m19 -18 c3 -5 -1 -9 -9 -9 -8 0 -12 4 -9 9 3 4 7 8 9 8 2 0 6 -4 9 -8z m-94
-33 c0 -5 -6 -8 -12 -6 -7 1 -12 -4 -10 -11 1 -8 -2 -11 -7 -8 -7 5 -8 25 -2
43 2 6 31 -10 31 -18z m120 -13 c-7 -7 -13 -7 -20 0 -6 6 -3 10 10 10 13 0 16
-4 10 -10z m-127 -109 c4 3 7 1 7 -5 0 -19 -43 -7 -46 12 -2 16 -1 16 15 2 10
-9 21 -13 24 -9z m59 -8 c2 -2 1 -3 -1 -2 -2 2 -9 -2 -16 -7 -8 -7 -12 -5 -12
4 0 12 22 16 29 5z m28 -23 c0 -2 -8 -10 -17 -17 -16 -13 -17 -12 -4 4 13 16
21 21 21 13z m-406 -22 c3 -8 2 -12 -4 -9 -6 3 -10 10 -10 16 0 14 7 11 14 -7z
m306 -38 c0 -2 -6 -9 -14 -15 -11 -9 -16 -9 -22 0 -4 7 -3 9 4 5 6 -3 13 -2
17 4 6 10 15 14 15 6z m135 -24 c-3 -3 -11 0 -18 7 -9 10 -8 11 6 5 10 -3 15
-9 12 -12z m-137 -77 c-3 -3 -9 2 -12 12 -6 14 -5 15 5 6 7 -7 10 -15 7 -18z
m63 0 c5 4 6 -1 2 -10 -5 -13 -7 -14 -14 -3 -5 7 -8 18 -8 23 0 6 3 4 6 -3 2
-6 9 -10 14 -7z m236 -130 c0 -8 -4 -12 -9 -9 -5 3 -6 10 -3 15 9 13 12 11 12
-6z m-242 -15 c-3 -5 -12 -10 -18 -10 -7 0 -6 4 3 10 19 12 23 12 15 0z m109
-36 c3 -8 2 -12 -4 -9 -6 3 -10 10 -10 16 0 14 7 11 14 -7z m89 -31 c-4 -10
-9 -11 -19 -2 -18 15 -18 15 5 15 11 0 17 -5 14 -13z"/>
<path d="M15936 24213 c-6 -14 -5 -15 5 -6 7 7 10 15 7 18 -3 3 -9 -2 -12 -12z"/>
<path d="M23255 19950 c3 -5 8 -10 11 -10 2 0 4 5 4 10 0 6 -5 10 -11 10 -5 0
-7 -4 -4 -10z"/>
<path d="M15047 18229 c7 -7 15 -10 18 -7 3 3 -2 9 -12 12 -14 6 -15 5 -6 -5z"/>
<path d="M17955 10040 c-3 -6 1 -7 9 -4 18 7 21 14 7 14 -6 0 -13 -4 -16 -10z"/>
<path d="M926 6958 c3 -5 10 -6 15 -3 13 9 11 12 -6 12 -8 0 -12 -4 -9 -9z"/>
<path d="M370 6679 c0 -5 5 -7 10 -4 6 3 10 8 10 11 0 2 -4 4 -10 4 -5 0 -10
-5 -10 -11z"/>
</g>
</svg>
